<svg width="255" height="79" viewBox="0 0 255 79" fill="none" xmlns="http://www.w3.org/2000/svg">
<rect width="255" height="79" fill="#1E1E1E"/>
<g clip-path="url(#clip0_0_1)">
<rect width="255" height="79" fill="#A5EC32"/>
<path d="M255 0H0V79H255V0Z" fill="#F5F5F5"/>
<path d="M263 0H0V79H263V0Z" fill="#81857F"/>
<g filter="url(#filter0_d_0_1)">
<path d="M30.0206 58.7115V24.2822H34.7046V55.013H52.6848V58.7115H30.0206ZM59.333 58.7115V32.8888H63.7904V58.7115H59.333ZM61.5995 28.5859C60.7308 28.5859 59.9815 28.3224 59.3519 27.7957C58.735 27.2689 58.4265 26.6358 58.4265 25.8961C58.4265 25.1564 58.735 24.5232 59.3519 23.9964C59.9815 23.4696 60.7308 23.2062 61.5995 23.2062C62.4683 23.2062 63.2112 23.4696 63.8282 23.9964C64.4578 24.5232 64.7726 25.1564 64.7726 25.8961C64.7726 26.6358 64.4578 27.2689 63.8282 27.7957C63.2112 28.3224 62.4683 28.5859 61.5995 28.5859ZM82.9083 59.25C80.4917 59.25 78.3576 58.7056 76.5061 57.6182C74.6546 56.5205 73.2069 54.9731 72.1615 52.9789C71.1177 50.9728 70.5942 48.6029 70.5942 45.8675C70.5942 43.1558 71.1177 40.8021 72.1615 38.8064C73.2069 36.8122 74.6612 35.2706 76.5244 34.1833C78.3892 33.0974 80.5416 32.553 82.9848 32.553C84.8729 32.553 86.3654 32.8341 87.4607 33.3933C88.5693 33.9436 89.4119 34.5709 89.992 35.2765C90.5837 35.9719 91.0424 36.5429 91.3698 36.9912H91.7471V24.2822H96.2047V58.7115H91.8983V54.7438H91.3698C91.0424 55.2142 90.577 55.809 89.972 56.5265C89.3687 57.2321 88.5061 57.8653 87.3842 58.426C86.264 58.9748 84.7715 59.25 82.9083 59.25ZM83.5133 55.6862C85.3017 55.6862 86.8125 55.2704 88.0457 54.442C89.2806 53.6002 90.218 52.4404 90.8596 50.961C91.5028 49.4713 91.8235 47.7507 91.8235 45.8009C91.8235 43.8733 91.5078 42.1868 90.8795 40.7399C90.2496 39.2827 89.3172 38.151 88.0839 37.3447C86.849 36.5266 85.3266 36.1168 83.5133 36.1168C81.6236 36.1168 80.0513 36.5488 78.7914 37.4113C77.5449 38.2634 76.6075 39.4233 75.9776 40.8923C75.361 42.348 75.0518 43.9842 75.0518 45.8009C75.0518 47.6383 75.366 49.3085 75.9959 50.8101C76.6374 52.3013 77.5831 53.4893 78.8297 54.3739C80.0878 55.2483 81.6501 55.6862 83.5133 55.6862ZM117.15 59.25C114.356 59.25 111.944 58.6997 109.917 57.602C107.902 56.4924 106.347 54.9465 105.251 52.9626C104.169 50.9669 103.627 48.6472 103.627 46.0021C103.627 43.357 104.169 41.0254 105.251 39.009C106.347 36.9808 107.871 35.3993 109.822 34.2676C111.786 33.1255 114.078 32.553 116.698 32.553C118.209 32.553 119.701 32.7779 121.174 33.2261C122.646 33.6744 123.987 34.4022 125.196 35.4112C126.406 36.4083 127.368 37.7309 128.086 39.3789C128.804 41.0254 129.163 43.0552 129.163 45.4636V47.1457H106.8V43.7164H124.629C124.629 42.2593 124.303 40.9589 123.648 39.8153C123.005 38.6732 122.086 37.7708 120.889 37.1095C119.706 36.4482 118.308 36.1168 116.698 36.1168C114.923 36.1168 113.385 36.5089 112.089 37.2944C110.804 38.0667 109.817 39.0756 109.124 40.3198C108.431 41.5639 108.085 42.8984 108.085 44.3215V46.6072C108.085 48.557 108.462 50.2109 109.219 51.5661C109.986 52.9123 111.05 53.9375 112.41 54.6432C113.769 55.3385 115.35 55.6862 117.15 55.6862C118.322 55.6862 119.379 55.5397 120.324 55.2483C121.28 54.9465 122.106 54.4982 122.797 53.9035C123.491 53.2984 124.026 52.5469 124.403 51.6504L128.709 52.7274C128.256 54.0263 127.494 55.1699 126.424 56.1566C125.354 57.1315 124.032 57.8934 122.458 58.4423C120.884 58.9808 119.114 59.25 117.15 59.25ZM135.943 58.7115V32.8888H140.249V36.79H140.551C141.08 35.5118 142.037 34.4747 143.422 33.6803C144.808 32.8844 146.369 32.4864 148.105 32.4864C148.433 32.4864 148.843 32.4923 149.334 32.5027C149.826 32.5145 150.196 32.5308 150.449 32.553V36.5873C150.298 36.5547 149.95 36.5044 149.41 36.4364C148.88 36.358 148.32 36.3195 147.728 36.3195C146.319 36.3195 145.059 36.5829 143.95 37.1095C142.855 37.6243 141.987 38.3418 141.344 39.2605C140.716 40.1689 140.4 41.2059 140.4 42.3717V58.7115H135.943Z" fill="#217FD6"/>
<path d="M151.209 27.9807V24.2822H180.22V27.9807H168.055V58.7115H163.371V27.9807H151.209ZM194.799 59.25C192.003 59.25 189.594 58.6997 187.566 57.602C185.551 56.4924 183.996 54.9465 182.9 52.9626C181.818 50.9669 181.277 48.6472 181.277 46.0021C181.277 43.357 181.818 41.0255 182.9 39.009C183.996 36.9808 185.52 35.3993 187.471 34.2676C189.436 33.1255 191.728 32.553 194.347 32.553C195.858 32.553 197.349 32.7779 198.823 33.2261C200.295 33.6744 201.637 34.4022 202.845 35.4112C204.053 36.4083 205.017 37.7309 205.735 39.3789C206.453 41.0255 206.812 43.0552 206.812 45.4636V47.1457H184.449V43.7165H202.278C202.278 42.2593 201.951 40.9589 201.296 39.8153C200.654 38.6732 199.735 37.7708 198.539 37.1095C197.355 36.4482 195.958 36.1168 194.347 36.1168C192.57 36.1168 191.035 36.5089 189.738 37.2944C188.453 38.0667 187.464 39.0756 186.773 40.3198C186.08 41.564 185.734 42.8984 185.734 44.3215V46.6072C185.734 48.557 186.112 50.211 186.868 51.5661C187.636 52.9123 188.699 53.9375 190.059 54.6432C191.418 55.3385 192.999 55.6862 194.799 55.6862C195.971 55.6862 197.028 55.5397 197.972 55.2483C198.929 54.9465 199.754 54.4982 200.447 53.9035C201.14 53.2984 201.675 52.5469 202.052 51.6504L206.359 52.7274C205.905 54.0263 205.144 55.1699 204.073 56.1566C203.003 57.1315 201.68 57.8934 200.106 58.4423C198.532 58.9808 196.764 59.25 194.799 59.25ZM225.377 59.25C222.658 59.25 220.316 58.6775 218.352 57.5354C216.387 56.3918 214.877 54.8163 213.818 52.8102C212.761 50.8042 212.232 48.5126 212.232 45.9355C212.232 43.3126 212.774 40.9988 213.856 38.9913C214.951 36.9749 216.475 35.3993 218.427 34.2676C220.391 33.1255 222.683 32.553 225.301 32.553C227.342 32.553 229.18 32.8888 230.817 33.562C232.454 34.2351 233.794 35.176 234.839 36.3861C235.885 37.5962 236.533 39.0091 236.786 40.6231H232.328C231.987 39.4455 231.233 38.404 230.061 37.4956C228.903 36.5769 227.342 36.1168 225.377 36.1168C223.641 36.1168 222.116 36.5207 220.807 37.327C219.51 38.1229 218.497 39.2502 217.765 40.7074C217.049 42.1527 216.69 43.8511 216.69 45.8009C216.69 47.7951 217.042 49.5319 217.747 51.0113C218.465 52.4907 219.472 53.6402 220.769 54.4583C222.078 55.2764 223.614 55.6862 225.377 55.6862C226.536 55.6862 227.588 55.5057 228.532 55.1477C229.476 54.7882 230.275 54.2734 230.93 53.6002C231.585 52.9286 232.051 52.1208 232.328 51.18H236.786C236.533 52.7037 235.91 54.0766 234.916 55.2986C233.934 56.5087 232.631 57.4733 231.005 58.1908C229.395 58.8964 227.518 59.25 225.377 59.25Z" fill="#0D09BC"/>
</g>
</g>
<defs>
<filter id="filter0_d_0_1" x="26.0206" y="23.2062" width="214.765" height="44.0438" filterUnits="userSpaceOnUse" color-interpolation-filters="sRGB">
<feFlood flood-opacity="0" result="BackgroundImageFix"/>
<feColorMatrix in="SourceAlpha" type="matrix" values="0 0 0 0 0 0 0 0 0 0 0 0 0 0 0 0 0 0 127 0" result="hardAlpha"/>
<feOffset dy="4"/>
<feGaussianBlur stdDeviation="2"/>
<feComposite in2="hardAlpha" operator="out"/>
<feColorMatrix type="matrix" values="0 0 0 0 0 0 0 0 0 0 0 0 0 0 0 0 0 0 0.25 0"/>
<feBlend mode="normal" in2="BackgroundImageFix" result="effect1_dropShadow_0_1"/>
<feBlend mode="normal" in="SourceGraphic" in2="effect1_dropShadow_0_1" result="shape"/>
</filter>
<clipPath id="clip0_0_1">
<rect width="255" height="79" fill="white"/>
</clipPath>
</defs>
</svg>
