<svg width="661" height="320" viewBox="0 0 661 320" fill="none" xmlns="http://www.w3.org/2000/svg">
<rect width="661" height="320" fill="#F5F5F5"/>
<rect width="661" height="320" fill="white"/>
<g filter="url(#filter0_bd_0_1)">
<path d="M77.8182 118V94.7273H80.6364V115.5H91.4545V118H77.8182ZM95.4545 118V100.545H98.1364V118H95.4545ZM96.8182 97.6364C96.2955 97.6364 95.8447 97.4583 95.4659 97.1023C95.0947 96.7462 94.9091 96.3182 94.9091 95.8182C94.9091 95.3182 95.0947 94.8902 95.4659 94.5341C95.8447 94.178 96.2955 94 96.8182 94C97.3409 94 97.7879 94.178 98.1591 94.5341C98.5379 94.8902 98.7273 95.3182 98.7273 95.8182C98.7273 96.3182 98.5379 96.7462 98.1591 97.1023C97.7879 97.4583 97.3409 97.6364 96.8182 97.6364ZM109.639 118.364C108.185 118.364 106.901 117.996 105.787 117.261C104.673 116.519 103.802 115.473 103.173 114.125C102.545 112.769 102.23 111.167 102.23 109.318C102.23 107.485 102.545 105.894 103.173 104.545C103.802 103.197 104.677 102.155 105.798 101.42C106.92 100.686 108.215 100.318 109.685 100.318C110.821 100.318 111.719 100.508 112.378 100.886C113.045 101.258 113.552 101.682 113.901 102.159C114.257 102.629 114.533 103.015 114.73 103.318H114.957V94.7273H117.639V118H115.048V115.318H114.73C114.533 115.636 114.253 116.038 113.889 116.523C113.526 117 113.007 117.428 112.332 117.807C111.658 118.178 110.76 118.364 109.639 118.364ZM110.003 115.955C111.079 115.955 111.988 115.674 112.73 115.114C113.473 114.545 114.037 113.761 114.423 112.761C114.81 111.754 115.003 110.591 115.003 109.273C115.003 107.97 114.813 106.83 114.435 105.852C114.056 104.867 113.495 104.102 112.753 103.557C112.01 103.004 111.094 102.727 110.003 102.727C108.866 102.727 107.92 103.019 107.162 103.602C106.412 104.178 105.848 104.962 105.469 105.955C105.098 106.939 104.912 108.045 104.912 109.273C104.912 110.515 105.101 111.644 105.48 112.659C105.866 113.667 106.435 114.47 107.185 115.068C107.942 115.659 108.882 115.955 110.003 115.955ZM130.241 118.364C128.56 118.364 127.109 117.992 125.889 117.25C124.677 116.5 123.741 115.455 123.082 114.114C122.431 112.765 122.105 111.197 122.105 109.409C122.105 107.621 122.431 106.045 123.082 104.682C123.741 103.311 124.658 102.242 125.832 101.477C127.014 100.705 128.393 100.318 129.969 100.318C130.878 100.318 131.776 100.47 132.662 100.773C133.548 101.076 134.355 101.568 135.082 102.25C135.81 102.924 136.389 103.818 136.821 104.932C137.253 106.045 137.469 107.417 137.469 109.045V110.182H124.014V107.864H134.741C134.741 106.879 134.545 106 134.151 105.227C133.764 104.455 133.211 103.845 132.491 103.398C131.779 102.951 130.938 102.727 129.969 102.727C128.901 102.727 127.976 102.992 127.196 103.523C126.423 104.045 125.829 104.727 125.412 105.568C124.995 106.409 124.787 107.311 124.787 108.273V109.818C124.787 111.136 125.014 112.254 125.469 113.17C125.931 114.08 126.571 114.773 127.389 115.25C128.207 115.72 129.158 115.955 130.241 115.955C130.946 115.955 131.582 115.856 132.151 115.659C132.726 115.455 133.223 115.152 133.639 114.75C134.056 114.341 134.378 113.833 134.605 113.227L137.196 113.955C136.923 114.833 136.465 115.606 135.821 116.273C135.177 116.932 134.382 117.447 133.435 117.818C132.488 118.182 131.423 118.364 130.241 118.364ZM141.548 118V100.545H144.139V103.182H144.321C144.639 102.318 145.215 101.617 146.048 101.08C146.882 100.542 147.821 100.273 148.866 100.273C149.063 100.273 149.31 100.277 149.605 100.284C149.901 100.292 150.124 100.303 150.276 100.318V103.045C150.185 103.023 149.976 102.989 149.651 102.943C149.332 102.89 148.995 102.864 148.639 102.864C147.791 102.864 147.033 103.042 146.366 103.398C145.707 103.746 145.185 104.231 144.798 104.852C144.42 105.466 144.23 106.167 144.23 106.955V118H141.548Z" fill="#217FD6"/>
<path d="M150.733 97.2273V94.7273H168.188V97.2273H160.869V118H158.051V97.2273H150.733ZM176.96 118.364C175.278 118.364 173.828 117.992 172.608 117.25C171.396 116.5 170.46 115.455 169.801 114.114C169.15 112.765 168.824 111.197 168.824 109.409C168.824 107.621 169.15 106.045 169.801 104.682C170.46 103.311 171.377 102.242 172.551 101.477C173.733 100.705 175.112 100.318 176.688 100.318C177.597 100.318 178.494 100.47 179.381 100.773C180.267 101.076 181.074 101.568 181.801 102.25C182.528 102.924 183.108 103.818 183.54 104.932C183.972 106.045 184.188 107.417 184.188 109.045V110.182H170.733V107.864H181.46C181.46 106.879 181.263 106 180.869 105.227C180.483 104.455 179.93 103.845 179.21 103.398C178.498 102.951 177.657 102.727 176.688 102.727C175.619 102.727 174.695 102.992 173.915 103.523C173.142 104.045 172.547 104.727 172.131 105.568C171.714 106.409 171.506 107.311 171.506 108.273V109.818C171.506 111.136 171.733 112.254 172.188 113.17C172.65 114.08 173.29 114.773 174.108 115.25C174.926 115.72 175.877 115.955 176.96 115.955C177.665 115.955 178.301 115.856 178.869 115.659C179.445 115.455 179.941 115.152 180.358 114.75C180.775 114.341 181.097 113.833 181.324 113.227L183.915 113.955C183.642 114.833 183.184 115.606 182.54 116.273C181.896 116.932 181.1 117.447 180.153 117.818C179.206 118.182 178.142 118.364 176.96 118.364ZM195.358 118.364C193.722 118.364 192.313 117.977 191.131 117.205C189.949 116.432 189.04 115.367 188.403 114.011C187.767 112.655 187.449 111.106 187.449 109.364C187.449 107.591 187.775 106.027 188.426 104.67C189.085 103.307 190.002 102.242 191.176 101.477C192.358 100.705 193.737 100.318 195.312 100.318C196.54 100.318 197.646 100.545 198.631 101C199.616 101.455 200.422 102.091 201.051 102.909C201.68 103.727 202.07 104.682 202.222 105.773H199.54C199.335 104.977 198.881 104.273 198.176 103.659C197.479 103.038 196.54 102.727 195.358 102.727C194.313 102.727 193.396 103 192.608 103.545C191.828 104.083 191.218 104.845 190.778 105.83C190.347 106.807 190.131 107.955 190.131 109.273C190.131 110.621 190.343 111.795 190.767 112.795C191.199 113.795 191.805 114.572 192.585 115.125C193.373 115.678 194.297 115.955 195.358 115.955C196.055 115.955 196.688 115.833 197.256 115.591C197.824 115.348 198.305 115 198.699 114.545C199.093 114.091 199.373 113.545 199.54 112.909H202.222C202.07 113.939 201.695 114.867 201.097 115.693C200.506 116.511 199.722 117.163 198.744 117.648C197.775 118.125 196.646 118.364 195.358 118.364Z" fill="#0D09BC"/>
</g>
<path d="M217.651 75H216.358L220.097 64.8182H221.369L225.108 75H223.815L220.773 66.429H220.693L217.651 75ZM218.128 71.0227H223.338V72.1165H218.128V71.0227ZM220.176 92.1591C219.46 92.1591 218.844 91.9901 218.327 91.652C217.81 91.3139 217.412 90.8482 217.134 90.255C216.855 89.6617 216.716 88.9839 216.716 88.2216C216.716 87.446 216.858 86.7616 217.143 86.1683C217.432 85.5717 217.833 85.1061 218.347 84.7713C218.864 84.4332 219.467 84.2642 220.156 84.2642C220.693 84.2642 221.177 84.3636 221.608 84.5625C222.039 84.7614 222.392 85.0398 222.667 85.3977C222.942 85.7557 223.113 86.1733 223.179 86.6506H222.006C221.916 86.3026 221.717 85.9943 221.409 85.7259C221.104 85.4541 220.693 85.3182 220.176 85.3182C219.719 85.3182 219.318 85.4375 218.973 85.6761C218.632 85.9115 218.365 86.2446 218.173 86.6754C217.984 87.103 217.889 87.6051 217.889 88.1818C217.889 88.7718 217.982 89.2855 218.168 89.723C218.357 90.1605 218.622 90.5002 218.963 90.7422C219.308 90.9841 219.712 91.1051 220.176 91.1051C220.481 91.1051 220.758 91.0521 221.006 90.946C221.255 90.84 221.465 90.6875 221.638 90.4886C221.81 90.2898 221.933 90.0511 222.006 89.7727H223.179C223.113 90.2235 222.949 90.6295 222.687 90.9908C222.428 91.3487 222.085 91.6338 221.658 91.8459C221.233 92.0547 220.74 92.1591 220.176 92.1591ZM220.276 109.159C219.54 109.159 218.905 108.997 218.371 108.672C217.841 108.344 217.432 107.886 217.143 107.3C216.858 106.71 216.716 106.024 216.716 105.241C216.716 104.459 216.858 103.77 217.143 103.173C217.432 102.573 217.833 102.106 218.347 101.771C218.864 101.433 219.467 101.264 220.156 101.264C220.554 101.264 220.947 101.33 221.335 101.463C221.722 101.596 222.075 101.811 222.393 102.109C222.712 102.404 222.965 102.795 223.154 103.283C223.343 103.77 223.438 104.37 223.438 105.082V105.58H217.551V104.565H222.244C222.244 104.134 222.158 103.75 221.986 103.412C221.817 103.074 221.575 102.807 221.26 102.612C220.948 102.416 220.58 102.318 220.156 102.318C219.689 102.318 219.285 102.434 218.943 102.666C218.605 102.895 218.345 103.193 218.163 103.561C217.98 103.929 217.889 104.323 217.889 104.744V105.42C217.889 105.997 217.989 106.486 218.188 106.887C218.39 107.285 218.67 107.588 219.028 107.797C219.386 108.002 219.802 108.105 220.276 108.105C220.584 108.105 220.862 108.062 221.111 107.976C221.363 107.886 221.58 107.754 221.762 107.578C221.944 107.399 222.085 107.177 222.185 106.912L223.318 107.23C223.199 107.615 222.998 107.953 222.717 108.244C222.435 108.533 222.087 108.758 221.673 108.92C221.258 109.08 220.793 109.159 220.276 109.159Z" fill="#217FD6"/>
<path d="M222.483 120.074L221.429 120.372C221.363 120.196 221.265 120.026 221.136 119.86C221.01 119.691 220.837 119.552 220.619 119.442C220.4 119.333 220.12 119.278 219.778 119.278C219.311 119.278 218.922 119.386 218.61 119.602C218.302 119.814 218.148 120.084 218.148 120.412C218.148 120.704 218.254 120.934 218.466 121.103C218.678 121.272 219.009 121.413 219.46 121.526L220.594 121.804C221.277 121.97 221.785 122.223 222.12 122.565C222.455 122.903 222.622 123.339 222.622 123.872C222.622 124.31 222.496 124.701 222.244 125.045C221.996 125.39 221.648 125.662 221.2 125.861C220.753 126.06 220.232 126.159 219.639 126.159C218.86 126.159 218.216 125.99 217.705 125.652C217.195 125.314 216.872 124.82 216.736 124.17L217.849 123.892C217.955 124.303 218.156 124.611 218.451 124.817C218.749 125.022 219.139 125.125 219.619 125.125C220.166 125.125 220.6 125.009 220.922 124.777C221.247 124.542 221.409 124.26 221.409 123.932C221.409 123.667 221.316 123.445 221.131 123.266C220.945 123.083 220.66 122.947 220.276 122.858L219.003 122.56C218.304 122.394 217.79 122.137 217.462 121.789C217.137 121.438 216.974 120.999 216.974 120.472C216.974 120.041 217.095 119.66 217.337 119.328C217.583 118.997 217.916 118.737 218.337 118.548C218.761 118.359 219.241 118.264 219.778 118.264C220.534 118.264 221.127 118.43 221.558 118.761C221.992 119.093 222.301 119.53 222.483 120.074ZM222.483 137.074L221.429 137.372C221.363 137.196 221.265 137.026 221.136 136.86C221.01 136.691 220.837 136.552 220.619 136.442C220.4 136.333 220.12 136.278 219.778 136.278C219.311 136.278 218.922 136.386 218.61 136.602C218.302 136.814 218.148 137.084 218.148 137.412C218.148 137.704 218.254 137.934 218.466 138.103C218.678 138.272 219.009 138.413 219.46 138.526L220.594 138.804C221.277 138.97 221.785 139.223 222.12 139.565C222.455 139.903 222.622 140.339 222.622 140.872C222.622 141.31 222.496 141.701 222.244 142.045C221.996 142.39 221.648 142.662 221.2 142.861C220.753 143.06 220.232 143.159 219.639 143.159C218.86 143.159 218.216 142.99 217.705 142.652C217.195 142.314 216.872 141.82 216.736 141.17L217.849 140.892C217.955 141.303 218.156 141.611 218.451 141.817C218.749 142.022 219.139 142.125 219.619 142.125C220.166 142.125 220.6 142.009 220.922 141.777C221.247 141.542 221.409 141.26 221.409 140.932C221.409 140.667 221.316 140.445 221.131 140.266C220.945 140.083 220.66 139.947 220.276 139.858L219.003 139.56C218.304 139.394 217.79 139.137 217.462 138.789C217.137 138.438 216.974 137.999 216.974 137.472C216.974 137.041 217.095 136.66 217.337 136.328C217.583 135.997 217.916 135.737 218.337 135.548C218.761 135.359 219.241 135.264 219.778 135.264C220.534 135.264 221.127 135.43 221.558 135.761C221.992 136.093 222.301 136.53 222.483 137.074ZM220.276 160.159C219.54 160.159 218.905 159.997 218.371 159.672C217.841 159.344 217.432 158.886 217.143 158.3C216.858 157.71 216.716 157.024 216.716 156.241C216.716 155.459 216.858 154.77 217.143 154.173C217.432 153.573 217.833 153.106 218.347 152.771C218.864 152.433 219.467 152.264 220.156 152.264C220.554 152.264 220.947 152.33 221.335 152.463C221.722 152.596 222.075 152.811 222.393 153.109C222.712 153.404 222.965 153.795 223.154 154.283C223.343 154.77 223.438 155.37 223.438 156.082V156.58H217.551V155.565H222.244C222.244 155.134 222.158 154.75 221.986 154.412C221.817 154.074 221.575 153.807 221.26 153.612C220.948 153.416 220.58 153.318 220.156 153.318C219.689 153.318 219.285 153.434 218.943 153.666C218.605 153.895 218.345 154.193 218.163 154.561C217.98 154.929 217.889 155.323 217.889 155.744V156.42C217.889 156.997 217.989 157.486 218.188 157.887C218.39 158.285 218.67 158.588 219.028 158.797C219.386 159.002 219.802 159.105 220.276 159.105C220.584 159.105 220.862 159.062 221.111 158.976C221.363 158.886 221.58 158.754 221.762 158.578C221.944 158.399 222.085 158.177 222.185 157.912L223.318 158.23C223.199 158.615 222.998 158.953 222.717 159.244C222.435 159.533 222.087 159.758 221.673 159.92C221.258 160.08 220.793 160.159 220.276 160.159Z" fill="#0D09BC"/>
<defs>
<filter id="filter0_bd_0_1" x="73.8182" y="90" width="132.403" height="36.3636" filterUnits="userSpaceOnUse" color-interpolation-filters="sRGB">
<feFlood flood-opacity="0" result="BackgroundImageFix"/>
<feGaussianBlur in="BackgroundImageFix" stdDeviation="2"/>
<feComposite in2="SourceAlpha" operator="in" result="effect1_backgroundBlur_0_1"/>
<feColorMatrix in="SourceAlpha" type="matrix" values="0 0 0 0 0 0 0 0 0 0 0 0 0 0 0 0 0 0 127 0" result="hardAlpha"/>
<feOffset dy="4"/>
<feGaussianBlur stdDeviation="2"/>
<feComposite in2="hardAlpha" operator="out"/>
<feColorMatrix type="matrix" values="0 0 0 0 0 0 0 0 0 0 0 0 0 0 0 0 0 0 0.25 0"/>
<feBlend mode="normal" in2="effect1_backgroundBlur_0_1" result="effect2_dropShadow_0_1"/>
<feBlend mode="normal" in="SourceGraphic" in2="effect2_dropShadow_0_1" result="shape"/>
</filter>
</defs>
</svg>
